<svg width="50" height="50" viewBox="0 0 50 50" fill="black" xmlns="http://www.w3.org/2000/svg">
<path d="M25 0C11.2225 0 0 11.2225 0 25C0 38.7775 11.2225 50 25 50C38.7775 50 50 38.7775 50 25C50 11.2225 38.7775 0 25 0ZM25 5C36.0753 5 45 13.9247 45 25C45 35.0362 37.6633 43.2825 28.0469 44.7461V30.9619H33.8672L34.7803 25.0488H28.0469V21.8164C28.0469 19.3589 28.8475 17.1777 31.1475 17.1777H34.8389V12.0166L34.8056 12.0121C34.1426 11.9228 32.7737 11.7383 30.2246 11.7383C24.8096 11.7383 21.6357 14.5983 21.6357 21.1133V25.0488H16.0693V30.9619H21.6357V44.6973C12.1757 43.1021 5 34.9256 5 25C5 13.9247 13.9247 5 25 5Z" fill="black"/>
<path d="M25 0C11.2225 0 0 11.2225 0 25C0 38.7775 11.2225 50 25 50C38.7775 50 50 38.7775 50 25C50 11.2225 38.7775 0 25 0ZM25 5C36.0753 5 45 13.9247 45 25C45 35.0362 37.6633 43.2825 28.0469 44.7461V30.9619H33.8672L34.7803 25.0488H28.0469V21.8164C28.0469 19.3589 28.8475 17.1777 31.1475 17.1777H34.8389V12.0166L34.8056 12.0121C34.1426 11.9228 32.7737 11.7383 30.2246 11.7383C24.8096 11.7383 21.6357 14.5983 21.6357 21.1133V25.0488H16.0693V30.9619H21.6357V44.6973C12.1757 43.1021 5 34.9256 5 25C5 13.9247 13.9247 5 25 5Z" stroke=""/>
</svg>
