<svg width="108" height="141" viewBox="0 0 108 141" fill="none" xmlns="http://www.w3.org/2000/svg">
<circle cx="54" cy="82" r="52" stroke="black" stroke-width="4"/>
<path d="M13.4921 83.312H19.7921L33.0641 30.056H26.7641L27.4361 27.368H45.0761L44.4041 30.056H38.1041L24.8321 83.312H31.1321L30.4601 86H12.8201L13.4921 83.312Z" fill="black"/>
<path d="M41.8245 115.06H47.0325L65.2605 88.936L47.6205 62.308H42.4125V59.368H60.8925V62.308H53.7525L68.6205 84.988H68.8725L83.9925 62.308H77.2725V59.368H93.4845V62.308H88.2765L70.6365 87.676L88.9485 115.06H94.1565V118H75.5925V115.06H82.7325L67.4445 91.708H67.1085L51.4005 115.06H58.1205V118H41.8245V115.06Z" fill="black"/>
</svg>
