<svg width="50" height="50" viewBox="0 0 50 50" fill="none" xmlns="http://www.w3.org/2000/svg">
<path d="M9.83333 5.55556C10 8.02778 10.4167 10.4444 11.0833 12.75L7.75 16.0833C6.61111 12.75 5.88889 9.22222 5.63889 5.55556H9.83333ZM37.2222 38.9444C39.5833 39.6111 42 40.0278 44.4444 40.1944V44.3333C40.7778 44.0833 37.25 43.3611 33.8889 42.25L37.2222 38.9444ZM12.5 0H2.77778C1.25 0 0 1.25 0 2.77778C0 28.8611 21.1389 50 47.2222 50C48.75 50 50 48.75 50 47.2222V37.5278C50 36 48.75 34.75 47.2222 34.75C43.7778 34.75 40.4167 34.1944 37.3056 33.1667C37.0278 33.0556 36.7222 33.0278 36.4445 33.0278C35.7222 33.0278 35.0278 33.3056 34.4722 33.8333L28.3611 39.9444C20.5 35.9167 14.0556 29.5 10.0556 21.6389L16.1667 15.5278C16.9444 14.75 17.1667 13.6667 16.8611 12.6944C15.8333 9.58333 15.2778 6.25 15.2778 2.77778C15.2778 1.25 14.0278 0 12.5 0Z" fill="white"/>
<path d="M9.83333 5.55556C10 8.02778 10.4167 10.4444 11.0833 12.75L7.75 16.0833C6.61111 12.75 5.88889 9.22222 5.63889 5.55556H9.83333ZM37.2222 38.9444C39.5833 39.6111 42 40.0278 44.4444 40.1944V44.3333C40.7778 44.0833 37.25 43.3611 33.8889 42.25L37.2222 38.9444ZM12.5 0H2.77778C1.25 0 0 1.25 0 2.77778C0 28.8611 21.1389 50 47.2222 50C48.75 50 50 48.75 50 47.2222V37.5278C50 36 48.75 34.75 47.2222 34.75C43.7778 34.75 40.4167 34.1944 37.3056 33.1667C37.0278 33.0556 36.7222 33.0278 36.4445 33.0278C35.7222 33.0278 35.0278 33.3056 34.4722 33.8333L28.3611 39.9444C20.5 35.9167 14.0556 29.5 10.0556 21.6389L16.1667 15.5278C16.9444 14.75 17.1667 13.6667 16.8611 12.6944C15.8333 9.58333 15.2778 6.25 15.2778 2.77778C15.2778 1.25 14.0278 0 12.5 0Z" stroke="white"/>
</svg>
