<svg width="50" height="50" viewBox="0 0 50 50" fill="none" xmlns="http://www.w3.org/2000/svg">
<path d="M42.7136 7.275C38.0151 2.575 31.7588 0 25.1005 0C11.3819 0 0.201005 11.125 0.201005 24.775C0.201005 29.15 1.35678 33.4 3.51759 37.15L0 50L13.191 46.55C16.8342 48.525 20.9296 49.575 25.1005 49.575C38.8191 49.575 50 38.45 50 24.8C50 18.175 47.4121 11.95 42.7136 7.275ZM25.1005 45.375C21.3819 45.375 17.7387 44.375 14.5477 42.5L13.794 42.05L5.95477 44.1L8.0402 36.5L7.53769 35.725C5.47739 32.45 4.37186 28.65 4.37186 24.775C4.37186 13.425 13.6683 4.175 25.0754 4.175C30.603 4.175 35.804 6.325 39.6985 10.225C43.6181 14.125 45.7538 19.3 45.7538 24.8C45.804 36.15 36.5075 45.375 25.1005 45.375ZM36.4573 29.975C36.3034 29.9015 36.0034 29.7561 35.63 29.575C34.4784 29.0168 32.6284 28.1199 32.2111 27.95C31.6332 27.75 31.2312 27.65 30.804 28.25C30.3769 28.875 29.196 30.275 28.8442 30.675C28.4925 31.1 28.1156 31.15 27.4874 30.825C27.3964 30.7815 27.2763 30.7301 27.1303 30.6677C26.2691 30.2994 24.5069 29.5456 22.4874 27.75C20.6281 26.1 19.397 24.075 19.0201 23.45C18.6683 22.825 18.9698 22.5 19.2965 22.175C19.4846 21.9878 19.7077 21.7195 19.926 21.4569C20.0285 21.3337 20.1299 21.2117 20.2261 21.1C20.5019 20.7799 20.6306 20.5225 20.8043 20.1747C20.8205 20.1423 20.8371 20.1091 20.8543 20.075C21.0553 19.65 20.9548 19.3 20.804 19C20.6533 18.7 19.397 15.65 18.8945 14.4C18.4501 13.3389 17.9862 13.3334 17.6241 13.329C17.5767 13.3284 17.5311 13.3279 17.4874 13.325H16.2814C15.8543 13.325 15.201 13.475 14.6231 14.1C14.5803 14.1484 14.5313 14.202 14.4771 14.2611C13.8311 14.9664 12.4623 16.461 12.4623 19.275C12.4623 22.309 14.6752 25.2441 14.9951 25.6685L15 25.675C15.0133 25.6937 15.0338 25.7236 15.0616 25.764C15.6657 26.6426 19.6709 32.4676 25.6281 35.025C27.1105 35.675 28.2663 36.05 29.1709 36.325C30.6533 36.8 32.01 36.725 33.0905 36.575C34.2965 36.4 36.7839 35.075 37.2864 33.625C37.8141 32.175 37.8141 30.95 37.6382 30.675C37.4971 30.4544 37.2267 30.3303 36.8009 30.135C36.6959 30.0868 36.5815 30.0343 36.4573 29.975Z" fill="white"/>
<path d="M42.7136 7.275C38.0151 2.575 31.7588 0 25.1005 0C11.3819 0 0.201005 11.125 0.201005 24.775C0.201005 29.15 1.35678 33.4 3.51759 37.15L0 50L13.191 46.55C16.8342 48.525 20.9296 49.575 25.1005 49.575C38.8191 49.575 50 38.45 50 24.8C50 18.175 47.4121 11.95 42.7136 7.275ZM25.1005 45.375C21.3819 45.375 17.7387 44.375 14.5477 42.5L13.794 42.05L5.95477 44.1L8.0402 36.5L7.53769 35.725C5.47739 32.45 4.37186 28.65 4.37186 24.775C4.37186 13.425 13.6683 4.175 25.0754 4.175C30.603 4.175 35.804 6.325 39.6985 10.225C43.6181 14.125 45.7538 19.3 45.7538 24.8C45.804 36.15 36.5075 45.375 25.1005 45.375ZM36.4573 29.975C36.3034 29.9015 36.0034 29.7561 35.63 29.575C34.4784 29.0168 32.6284 28.1199 32.2111 27.95C31.6332 27.75 31.2312 27.65 30.804 28.25C30.3769 28.875 29.196 30.275 28.8442 30.675C28.4925 31.1 28.1156 31.15 27.4874 30.825C27.3964 30.7815 27.2763 30.7301 27.1303 30.6677C26.2691 30.2994 24.5069 29.5456 22.4874 27.75C20.6281 26.1 19.397 24.075 19.0201 23.45C18.6683 22.825 18.9698 22.5 19.2965 22.175C19.4846 21.9878 19.7077 21.7195 19.926 21.4569C20.0285 21.3337 20.1299 21.2117 20.2261 21.1C20.5019 20.7799 20.6306 20.5225 20.8043 20.1747C20.8205 20.1423 20.8371 20.1091 20.8543 20.075C21.0553 19.65 20.9548 19.3 20.804 19C20.6533 18.7 19.397 15.65 18.8945 14.4C18.4501 13.3389 17.9862 13.3334 17.6241 13.329C17.5767 13.3284 17.5311 13.3279 17.4874 13.325H16.2814C15.8543 13.325 15.201 13.475 14.6231 14.1C14.5803 14.1484 14.5313 14.202 14.4771 14.2611C13.8311 14.9664 12.4623 16.461 12.4623 19.275C12.4623 22.309 14.6752 25.2441 14.9951 25.6685L15 25.675C15.0133 25.6937 15.0338 25.7236 15.0616 25.764C15.6657 26.6426 19.6709 32.4676 25.6281 35.025C27.1105 35.675 28.2663 36.05 29.1709 36.325C30.6533 36.8 32.01 36.725 33.0905 36.575C34.2965 36.4 36.7839 35.075 37.2864 33.625C37.8141 32.175 37.8141 30.95 37.6382 30.675C37.4971 30.4544 37.2267 30.3303 36.8009 30.135C36.6959 30.0868 36.5815 30.0343 36.4573 29.975Z" stroke="white"/>
</svg>
