<svg width="1294" height="363" viewBox="0 0 1294 363" fill="none" xmlns="http://www.w3.org/2000/svg">
<path d="M87.2988 11.9258C89.252 4.60156 94.2161 0.939453 102.191 0.939453H116.84C120.746 0.939453 123.594 2.48568 125.385 5.57812C127.338 8.50781 127.745 12.1699 126.605 16.5645L41.1562 352.014C39.2031 359.338 34.2389 363 26.2637 363H11.6152C7.70898 363 4.86068 361.535 3.07031 358.605C1.11719 355.513 0.628906 351.851 1.60547 347.619L87.2988 11.9258ZM198.139 11.9258C200.092 4.92708 204.893 1.26497 212.543 0.939453H227.68C231.26 0.939453 234.109 2.24154 236.225 4.8457C238.503 7.28711 239.968 11.1934 240.619 16.5645L285.053 269.494L350.482 11.9258C352.598 4.60156 357.644 0.939453 365.619 0.939453H380.023C384.092 0.939453 387.022 2.48568 388.812 5.57812C390.603 8.50781 391.01 12.1699 390.033 16.5645L304.584 352.014C302.631 359.338 297.585 363 289.447 363H271.625C269.184 363 267.149 362.268 265.521 360.803C263.894 359.338 262.592 354.943 261.615 347.619L217.67 95.4219L151.996 352.014C150.043 359.338 145.079 363 137.104 363H122.455C118.549 363 115.701 361.535 113.91 358.605C111.957 355.513 111.469 351.851 112.445 347.619L198.139 11.9258ZM596.576 35.6074H492.572L457.172 175.988H547.992C551.085 175.988 553.201 177.209 554.34 179.65C555.479 181.929 555.723 184.533 555.072 187.463L551.654 199.914C550.027 206.913 544.981 210.412 536.518 210.412H448.139L412.006 352.014C410.053 359.338 405.089 363 397.113 363H382.709C378.64 363 375.71 361.535 373.92 358.605C371.967 355.513 371.56 351.851 372.699 347.619L452.045 35.6074H432.514C427.631 35.6074 424.538 34.875 423.236 33.4102C422.097 31.7826 422.26 28.1204 423.725 22.4238L426.654 10.9492C427.956 6.71745 429.34 4.0319 430.805 2.89258C432.27 1.59049 435.362 0.939453 440.082 0.939453H603.168C607.725 0.939453 610.736 1.83464 612.201 3.625C613.829 5.2526 613.992 8.50781 612.689 13.3906L609.027 26.0859C607.4 32.4336 603.249 35.6074 596.576 35.6074ZM653.705 11.9258C655.658 4.60156 660.622 0.939453 668.598 0.939453H683.246C687.152 0.939453 690.001 2.48568 691.791 5.57812C693.744 8.50781 694.151 12.1699 693.012 16.5645L607.562 352.014C605.609 359.338 600.645 363 592.67 363H578.021C574.115 363 571.267 361.535 569.477 358.605C567.523 355.513 567.035 351.851 568.012 347.619L653.705 11.9258ZM764.545 11.9258C766.498 4.92708 771.299 1.26497 778.949 0.939453H794.086C797.667 0.939453 800.515 2.24154 802.631 4.8457C804.91 7.28711 806.374 11.1934 807.025 16.5645L851.459 269.494L916.889 11.9258C919.005 4.60156 924.05 0.939453 932.025 0.939453H946.43C950.499 0.939453 953.428 2.48568 955.219 5.57812C957.009 8.50781 957.416 12.1699 956.439 16.5645L870.99 352.014C869.037 359.338 863.992 363 855.854 363H838.031C835.59 363 833.555 362.268 831.928 360.803C830.3 359.338 828.998 354.943 828.021 347.619L784.076 95.4219L718.402 352.014C716.449 359.338 711.485 363 703.51 363H688.861C684.955 363 682.107 361.535 680.316 358.605C678.363 355.513 677.875 351.851 678.852 347.619L764.545 11.9258ZM1022.85 11.9258C1024.8 4.60156 1029.76 0.939453 1037.74 0.939453H1052.39C1056.29 0.939453 1059.14 2.48568 1060.93 5.57812C1062.88 8.50781 1063.29 12.1699 1062.15 16.5645L976.703 352.014C974.75 359.338 969.786 363 961.811 363H947.162C943.256 363 940.408 361.535 938.617 358.605C936.664 355.513 936.176 351.851 937.152 347.619L1022.85 11.9258ZM1181.29 196.008L1214.25 346.887C1215.23 351.281 1214.98 355.106 1213.52 358.361C1212.05 361.454 1209.29 363 1205.22 363H1186.66C1178.36 363 1173.07 357.303 1170.79 345.91L1149.8 220.91L1084.86 351.525C1081.44 359.175 1075.42 363 1066.79 363H1048.24C1036.19 363 1033.51 356.001 1040.18 342.004L1134.66 172.57L1102.19 20.4707C1098.61 7.12435 1103.01 0.451172 1115.38 0.451172H1127.34C1138.24 0.451172 1144.59 6.14779 1146.38 17.541L1168.84 147.912L1239.89 8.99609C1242.49 3.29948 1247.94 0.451172 1256.24 0.451172H1272.36C1286.35 0.451172 1289.53 7.44987 1281.88 21.4473L1181.29 196.008Z" fill="black" fill-opacity="0.29"/>
</svg>
